HIERARCHY
ROOT RootJoint
{
    OFFSET   0.000000   0.000000   0.000000
    CHANNELS 6 Xposition Yposition Zposition Xrotation Yrotation Zrotation
    JOINT pelvis_lowerback
    {
        OFFSET   0.000000   0.093605   0.000000
        CHANNELS 3 Xrotation Yrotation Zrotation
        JOINT lowerback_torso
        {
            OFFSET   0.000000   0.100000   0.000000
            CHANNELS 3 Xrotation Yrotation Zrotation
            JOINT torso_head
            {
                OFFSET   0.000000   0.282350   0.000000
                CHANNELS 3 Xrotation Yrotation Zrotation
                End Site
                {
                    OFFSET   0.000000   0.192650   0.000000
                }
            }
            JOINT rTorso_Clavicle
            {
                OFFSET  -0.001000   0.157500   0.000000
                CHANNELS 3 Xrotation Yrotation Zrotation
                JOINT rShoulder
                {
                    OFFSET  -0.117647   0.000000   0.000000
                    CHANNELS 3 Xrotation Yrotation Zrotation
                    JOINT rElbow
                    {
                        OFFSET  -0.245000   0.000000   0.000000
                        CHANNELS 3 Xrotation Yrotation Zrotation
                        JOINT rWrist
                        {
                            OFFSET  -0.240000   0.000000   0.000000
                            CHANNELS 3 Xrotation Yrotation Zrotation
                            End Site
                            {
                                OFFSET  -0.116353  -0.002500   0.000000
                            }
                        }
                    }
                }
            }
            JOINT lTorso_Clavicle
            {
                OFFSET   0.001000   0.157500   0.000000
                CHANNELS 3 Xrotation Yrotation Zrotation
                JOINT lShoulder
                {
                    OFFSET   0.117647   0.000000   0.000000
                    CHANNELS 3 Xrotation Yrotation Zrotation
                    JOINT lElbow
                    {
                        OFFSET   0.245000   0.000000   0.000000
                        CHANNELS 3 Xrotation Yrotation Zrotation
                        JOINT lWrist
                        {
                            OFFSET   0.240000   0.000000   0.000000
                            CHANNELS 3 Xrotation Yrotation Zrotation
                            End Site
                            {
                                OFFSET   0.116353  -0.002500   0.000000
                            }
                        }
                    }
                }
            }
        }
    }
    JOINT rHip
    {
        OFFSET  -0.100000  -0.051395   0.000000
        CHANNELS 3 Xrotation Yrotation Zrotation
        JOINT rKnee
        {
            OFFSET   0.000000  -0.410000   0.000000
            CHANNELS 3 Xrotation Yrotation Zrotation
            JOINT rAnkle
            {
                OFFSET   0.000000  -0.390000   0.000000
                CHANNELS 3 Xrotation Yrotation Zrotation
                JOINT rToeJoint
                {
                    OFFSET   0.000000  -0.050000   0.130000
                    CHANNELS 3 Xrotation Yrotation Zrotation
                    End Site
                    {
                        OFFSET  -0.010000   0.002000   0.060000
                    }
                }
            }
        }
    }
    JOINT lHip
    {
        OFFSET   0.100000  -0.051395   0.000000
        CHANNELS 3 Xrotation Yrotation Zrotation
        JOINT lKnee
        {
            OFFSET   0.000000  -0.410000   0.000000
            CHANNELS 3 Xrotation Yrotation Zrotation
            JOINT lAnkle
            {
                OFFSET   0.000000  -0.390000   0.000000
                CHANNELS 3 Xrotation Yrotation Zrotation
                JOINT lToeJoint
                {
                    OFFSET   0.000000  -0.050000   0.130000
                    CHANNELS 3 Xrotation Yrotation Zrotation
                    End Site
                    {
                        OFFSET   0.010000   0.002000   0.060000
                    }
                }
            }
        }
    }
}
MOTION
Frames: 7
Frame Time:   0.008333
 -2.376719   0.925631   3.975860   0.000000   0.000000   0.000000   0.000000   0.000000   0.000000   0.000000   0.000000   0.000000   0.000000   0.000000   0.000000   0.000000   0.000000   0.000000   0.000000   0.000000   0.000000   0.000000   0.000000   0.000000   0.000000   0.000000   0.000000   0.000000   0.000000   0.000000   0.000000   0.000000   0.000000   0.000000   0.000000   0.000000   0.000000   0.000000   0.000000   0.000000   0.000000   0.000000   0.000000   0.000000   0.000000   0.000000   0.000000   0.000000   0.000000   0.000000   0.000000   0.000000   0.000000   0.000000   0.000000   0.000000   0.000000   0.000000   0.000000   0.000000   0.000000   0.000000   0.000000
 -2.376329   0.925287   3.974068  -0.723292  -0.313752   0.388232   1.209501   0.301356  -0.327053  -0.068026  -0.147953  -0.257995   0.000988   0.167131   0.116058  -0.167297  -0.301172  -0.348416  -0.581173   0.648920   2.091534   0.045765   3.406450   0.008283  -0.226821  -2.212669  -1.485480  -0.643939   0.293169   0.517583  -2.367143   0.310298  -1.395283   0.030693  -3.534557  -0.079278  -0.265262   1.569891   1.532964  -0.164241   0.084416  -0.781819   2.747734   0.009279  -0.005823  -2.058139  -0.632427   0.158023   0.040742   0.000084  -0.000305  -0.492755   0.473677  -0.216212   3.136567  -0.004468   0.004459  -1.906262   0.175160  -0.139480   0.043666  -0.000012   0.000126
 -2.375821   0.924680   3.971924  -1.638800  -0.780264   0.793822   2.454420   0.677967  -0.667205   0.049293  -0.191153  -0.531079   0.071255   0.322314   0.195918  -0.322810  -0.287665  -0.262336  -1.173250   1.532114   4.401113   0.104746   7.002538   0.012940  -0.464850  -3.254740  -2.394800  -1.265736   0.397760   0.693720  -4.599215   0.465222  -2.947678   0.063488  -7.219922  -0.140738  -0.605159   2.096595   2.621576  -0.116648   0.139658  -1.862911   5.679183   0.023425  -0.017140  -3.963085  -1.242716   0.282970   0.063251   0.000175  -0.000447  -0.980050   0.946383  -0.240220   6.442464  -0.013864   0.004826  -3.668589   0.351031  -0.260072   0.071960  -0.000070   0.000146
 -2.375247   0.923581   3.969573  -2.569818  -1.307865   1.159562   3.644082   1.092689  -0.978914   0.205868  -0.158268  -0.772252   0.139787   0.466224   0.259385  -0.465542  -0.049200   0.101919  -1.776994   2.509944   6.779987   0.165295  10.672627   0.015921  -0.684034  -3.714500  -2.813078  -1.842503   0.348779   0.618015  -6.682154   0.550987  -4.573387   0.091895 -10.958545  -0.187115  -0.929332   2.193367   3.281446   0.048071   0.171725  -3.133285   8.492748   0.038072  -0.029963  -5.733699  -1.822278   0.379031   0.101598   0.000404  -0.000730  -1.524585   1.390755  -0.048119   9.559862  -0.025495   0.004454  -5.308878   0.521734  -0.364908   0.109328  -0.000196   0.000154
 -2.374639   0.921837   3.967096  -3.474450  -1.842782   1.479963   4.775721   1.524255  -1.256639   0.368248  -0.076482  -0.973956   0.193104   0.600367   0.315270  -0.598781   0.333401   0.638522  -2.391152   3.517191   9.158846   0.221671  14.387311   0.017210  -0.887035  -3.858777  -2.883796  -2.376370   0.198527   0.378130  -8.622582   0.612639  -6.218389   0.112826 -14.727038  -0.221651  -1.237750   2.090799   3.626895   0.291934   0.186590  -4.543429  11.148346   0.051332  -0.042165  -7.384438  -2.370054   0.449868   0.137984   0.000635  -0.000946  -2.140137   1.801723   0.331777  12.444481  -0.037146   0.005266  -6.840444   0.686557  -0.456355   0.138823  -0.000306   0.000149
 -2.374179   0.919506   3.964356  -4.381831  -2.309957   1.787017   5.912935   1.939385  -1.543644   0.555461   0.022226  -1.145075   0.229997   0.725055   0.367115  -0.724766   0.809496   1.296404  -3.012367   4.517219  11.505498   0.271866  18.130467   0.015096  -1.079575  -3.824029  -2.714295  -2.871935  -0.030911   0.041789 -10.429471   0.664095  -7.838850   0.126054 -18.515015  -0.245628  -1.532812   1.882023   3.772619   0.466290   0.277574  -5.806051  13.326261   0.055020  -0.046936  -9.128657  -2.739844   0.629543   0.082634   0.000170  -0.000351  -2.811911   2.174469   0.853776  15.110094  -0.047615   0.008736  -8.269892   0.844348  -0.537192   0.167183  -0.000419   0.000161
 -2.373717   0.916565   3.961516  -5.330247  -2.697174   2.131156   7.066787   2.332696  -1.843072   0.791080   0.127316  -1.310938   0.262577   0.841264   0.410458  -0.845548   1.343109   2.011734  -3.636268   5.488482  13.783944   0.314904  21.892782   0.010193  -1.263028  -3.681299  -2.384689  -3.331418  -0.314583  -0.353517 -12.109677   0.716974  -9.415488   0.131324 -22.316412  -0.261970  -1.814940   1.611703   3.775353   0.551699   0.353715  -6.976376  15.277763   0.053909  -0.048731 -10.798411  -3.084028   0.794991   0.127869   0.000357  -0.000584  -3.482992   2.512725   1.429200  17.572429  -0.055760   0.014161  -9.604720   0.995049  -0.608671   0.191807  -0.000504   0.000182
